#!OML:ASF E:\VariousWalksJay\Project 1\Capture day 1\Session 1\Actor2.ASF
:FULLY-SPECIFIED
:DEGREES
564
root 11.7363 15.354 -0.40803 11.0492 -29.7539 -2.30869
lowerback 19.7217 -2.11104 2.08802
upperback 14.2601 -2.79261 -2.23625
thorax 4.27357 -1.29394 -3.14078
lowerneck 3.80923 0.00303127 0.0397075
upperneck -16.732 1.42504 9.80091
head -5.73439 -0.0652728 3.00829
rclavicle -5.88403e-014 4.53229e-014
rhumerus -39.8733 23.4154 -85.9109
rradius 63.974
rwrist 4.41048
rhand -12.1184 -11.2296
rfingers 7.12502
rthumb 13.9429 -40.7421
lclavicle -5.88403e-014 4.53229e-014
lhumerus 22.9221 -21.2963 61.5338
lradius 74.2805
lwrist 82.9657
lhand -37.6822 6.96384
lfingers 7.12502
lthumb -10.7327 36.6697
rfemur -60.0185 5.62224 20.088
rtibia 39.4116
rfoot 3.46176 -0.954196
rtoes -4.33532
lfemur -23.0355 4.72105 -22.3677
ltibia 72.6465
lfoot -27.9955 -0.94934
ltoes -30.9647
565
root 11.6886 15.3613 -0.3299 11.2166 -29.8053 -2.32758
lowerback 19.7117 -2.11741 2.05692
upperback 14.2131 -2.80388 -2.24891
thorax 4.22478 -1.30195 -3.13355
lowerneck 3.78278 0.0167288 0.018125
upperneck -16.7768 1.44466 9.80521
head -5.74482 -0.0560276 3.01285
rclavicle 2.3059e-014 -9.54166e-015
rhumerus -39.9033 23.3848 -85.895
rradius 64.0404
rwrist 4.33262
rhand -12.253 -11.2097
rfingers 7.12502
rthumb 13.8132 -40.7311
lclavicle 2.3059e-014 -9.54166e-015
lhumerus 22.9227 -21.291 61.495
lradius 74.2415
lwrist 82.9821
lhand -37.6665 7.03797
lfingers 7.12502
lthumb -10.7176 36.7446
rfemur -60.2525 5.56679 20.2549
rtibia 40.0613
rfoot 3.63955 -0.830171
rtoes -4.14301
lfemur -22.6693 4.62874 -22.3018
ltibia 72.2701
lfoot -27.9063 -1.05317
ltoes -30.9338
566
root 11.6409 15.3681 -0.251791 11.3865 -29.8696 -2.35908
lowerback 19.7021 -2.11922 2.03035
upperback 14.1682 -2.80895 -2.25787
thorax 4.17876 -1.30672 -3.12596
lowerneck 3.75775 0.0315524 -0.00399515
upperneck -16.8286 1.46648 9.81024
head -5.75782 -0.0460483 3.01773
rclavicle -9.54166e-015 1.98785e-014
rhumerus -39.9276 23.3459 -85.8734
rradius 64.1048
rwrist 4.25796
rhand -12.3934 -11.189
rfingers 7.12502
rthumb 13.6778 -40.7196
lclavicle -9.54166e-015 1.98785e-014
lhumerus 22.9139 -21.2955 61.4461
lradius 74.2294
lwrist 82.9914
lhand -37.6534 7.10013
lfingers 7.12502
lthumb -10.705 36.8074
rfemur -60.4995 5.55422 20.4129
rtibia 40.7552
rfoot 3.6912 -0.68336
rtoes -3.91825
lfemur -22.2902 4.52884 -22.2257
ltibia 71.8819
lfoot -27.8277 -1.16938
ltoes -30.8888
567
root 11.593 15.3744 -0.173841 11.5612 -29.9431 -2.40195
lowerback 19.6925 -2.11777 2.00201
upperback 14.1221 -2.81022 -2.2608
thorax 4.13199 -1.31008 -3.11151
lowerneck 3.7342 0.0465547 -0.0306911
upperneck -16.8795 1.48855 9.81824
head -5.77081 -0.0358751 3.02431
rclavicle -5.32743e-014 -3.97569e-015
rhumerus -39.9493 23.305 -85.8454
rradius 64.1665
rwrist 4.18946
rhand -12.5355 -11.1702
rfingers 7.12502
rthumb 13.5409 -40.7099
lclavicle -5.32743e-014 -3.97569e-015
lhumerus 22.89 -21.3057 61.3955
lradius 74.2387
lwrist 82.9869
lhand -37.6515 7.10109
lfingers 7.12502
lthumb -10.7031 36.8085
rfemur -60.7613 5.58748 20.5573
rtibia 41.4874
rfoot 3.6539 -0.537458
rtoes -3.66608
lfemur -21.8985 4.42658 -22.1367
ltibia 71.4768
lfoot -27.7644 -1.30034
ltoes -30.8614
568
root 11.5445 15.3801 -0.0957546 11.7387 -30.0263 -2.45424
lowerback 19.6783 -2.11502 1.97131
upperback 14.0757 -2.81033 -2.26169
thorax 4.08746 -1.31312 -3.09387
lowerneck 3.71626 0.0632651 -0.0638436
upperneck -16.9284 1.51351 9.83317
head -5.78437 -0.0244399 3.03402
rclavicle -3.97569e-015 -2.62396e-014
rhumerus -39.9647 23.268 -85.8187
rradius 64.2185
rwrist 4.12229
rhand -12.6797 -11.1493
rfingers 7.12502
rthumb 13.4019 -40.6982
lclavicle -3.97569e-015 -2.62396e-014
lhumerus 22.8566 -21.3154 61.3312
lradius 74.2602
lwrist 82.9762
lhand -37.6457 7.11082
lfingers 7.12502
lthumb -10.6976 36.8185
rfemur -61.0314 5.66579 20.6878
rtibia 42.2472
rfoot 3.56307 -0.41074
rtoes -3.38022
lfemur -21.4841 4.3245 -22.0364
ltibia 71.0453
lfoot -27.7249 -1.45055
ltoes -30.8506
569
root 11.4955 15.3852 -0.0174315 11.9227 -30.1108 -2.5141
lowerback 19.6546 -2.1103 1.94383
upperback 14.0283 -2.80754 -2.26217
thorax 4.04681 -1.31439 -3.07839
lowerneck 3.69831 0.0770664 -0.0880683
upperneck -16.9711 1.53527 9.85128
head -5.79584 -0.0151445 3.04333
rclavicle 8.0309e-014 4.45278e-014
rhumerus -39.978 23.2181 -85.7958
rradius 64.2646
rwrist 4.05579
rhand -12.8241 -11.1209
rfingers 7.12502
rthumb 13.2627 -40.679
lclavicle 8.0309e-014 4.45278e-014
lhumerus 22.8213 -21.3346 61.2596
lradius 74.2873
lwrist 82.9541
lhand -37.6394 7.1184
lfingers 7.12502
lthumb -10.6915 36.8264
rfemur -61.3114 5.77748 20.8079
rtibia 43.0223
rfoot 3.45443 -0.325071
rtoes -3.11403
lfemur -21.0483 4.22124 -21.926
ltibia 70.5814
lfoot -27.7105 -1.61905
ltoes -30.8571
570
root 11.4456 15.3897 0.0611093 12.1131 -30.191 -2.58042
lowerback 19.6171 -2.10692 1.92375
upperback 13.9809 -2.80549 -2.26495
thorax 4.01259 -1.31523 -3.06991
lowerneck 3.68446 0.0894813 -0.103975
upperneck -17.011 1.55649 9.87366
head -5.8072 -0.00696924 3.05261
rclavicle -3.10104e-014 1.74931e-014
rhumerus -39.9885 23.1548 -85.782
rradius 64.3024
rwrist 3.99205
rhand -12.9507 -11.0965
rfingers 7.12502
rthumb 13.1407 -40.6624
lclavicle -3.10104e-014 1.74931e-014
lhumerus 22.7979 -21.3599 61.1627
lradius 74.3106
lwrist 82.9345
lhand -37.6327 7.09962
lfingers 7.12502
lthumb -10.685 36.8079
rfemur -61.5977 5.91363 20.9216
rtibia 43.8001
rfoot 3.36037 -0.300614
rtoes -2.87133
lfemur -20.5912 4.12276 -21.806
ltibia 70.08
lfoot -27.7228 -1.79856
ltoes -30.9019
